<?xml version="1.0" standalone="no"?>
<!DOCTYPE svg PUBLIC "-//W3C//DTD SVG 20010904//EN"
 "http://www.w3.org/TR/2001/REC-SVG-20010904/DTD/svg10.dtd">
<svg version="1.0" xmlns="http://www.w3.org/2000/svg"
 width="253.000000pt" height="253.000000pt" viewBox="0 0 253.000000 253.000000"
 preserveAspectRatio="xMidYMid meet">
<metadata>
Created by potrace 1.14, written by Peter Selinger 2001-2017
</metadata>
<g transform="translate(0.000000,253.000000) scale(0.100000,-0.100000)"
fill="#000000" stroke="none">
<path d="M2078 2386 c-79 -33 -149 -87 -192 -149 -55 -79 -66 -129 -66 -286
l0 -137 55 -54 55 -54 1 74 c1 41 4 104 8 139 l6 63 44 15 c141 47 239 162
271 315 16 83 6 98 -68 98 -36 0 -77 -9 -114 -24z"/>
<path d="M1545 2366 c-43 -31 16 -167 94 -219 72 -48 151 -57 165 -20 11 28
-22 117 -59 160 -54 64 -163 107 -200 79z"/>
<path d="M697 1784 l-567 -546 0 -539 0 -539 1125 0 1125 0 0 538 0 538 -548
547 c-301 301 -552 547 -558 547 -5 0 -265 -246 -577 -546z m1055 -151 l468
-468 0 -417 0 -418 -960 0 -960 0 0 419 0 419 278 269 c500 485 687 663 697
663 5 0 220 -210 477 -467z"/>
<path d="M1460 1742 c-74 -37 -89 -125 -31 -183 56 -55 139 -45 182 24 38 60
12 134 -58 163 -42 18 -51 18 -93 -4z"/>
<path d="M953 1604 c-35 -18 -63 -67 -63 -112 0 -41 42 -89 90 -103 52 -16
107 11 133 64 17 33 17 42 5 79 -23 71 -100 105 -165 72z"/>
<path d="M1260 1503 c-8 -3 -31 -12 -50 -20 l-35 -15 68 -18 c255 -67 387
-231 391 -482 0 -54 3 -98 6 -98 12 0 71 99 86 143 24 72 16 196 -18 270 -35
75 -114 157 -185 192 -50 25 -72 29 -153 32 -52 1 -102 0 -110 -4z"/>
<path d="M1034 1352 c-108 -38 -207 -142 -241 -251 -21 -68 -18 -177 6 -240
20 -54 68 -131 80 -131 4 0 5 27 3 59 -6 85 14 185 53 267 59 122 180 213 339
254 l71 18 -40 18 c-60 26 -206 30 -271 6z"/>
<path d="M1293 1290 c-29 -12 -63 -67 -63 -103 0 -36 23 -81 52 -101 13 -9 43
-16 69 -16 83 0 134 70 110 151 -20 65 -98 97 -168 69z"/>
<path d="M1082 1042 c-51 -19 -70 -29 -61 -35 2 -1 36 -10 74 -20 99 -25 170
-63 236 -127 96 -94 139 -205 139 -359 l0 -94 24 22 c13 12 36 48 52 79 27 52
29 66 29 162 0 97 -2 110 -30 165 -39 77 -114 154 -189 190 -78 38 -194 45
-274 17z"/>
<path d="M934 823 c-27 -256 139 -476 347 -461 63 5 97 26 125 80 19 36 18
133 -2 191 -21 62 -35 69 -28 15 8 -58 -11 -122 -43 -147 -52 -41 -147 -20
-228 52 -71 62 -145 211 -145 293 0 61 -18 45 -26 -23z"/>
<path d="M1117 832 c-36 -22 -60 -74 -52 -112 6 -26 9 -28 26 -20 19 11 28 -3
10 -14 -14 -9 -1 -45 20 -57 11 -5 24 -7 29 -4 6 3 10 1 10 -4 0 -28 96 7 123
45 24 32 24 109 0 118 -7 3 -13 12 -13 20 0 21 -52 46 -92 45 -18 0 -45 -8
-61 -17z"/>
</g>
</svg>
